# xmcd CD database file
#
# Track frame offsets:
#	150
#	30581
#	60164
#	97905
#	132640
#	162584
#	186839
#	210907
#	232403
#	252392
#	274808
#
# Disc length: 3974 seconds
#
# Revision: 1
# Processed by: cddbd v1.5.2PL0 Copyright (c) Steve Scherf et al.
# Submitted via: CDex 1.70beta2
#
DISCID=9b0f840b
DTITLE=Jeb Bishop - 2009
DYEAR=2009
DGENRE=Jazz
TTITLE0=900
TTITLE1=Dusk
TTITLE2=Jacket Weather
TTITLE3=3
TTITLE4=Awomblyin
TTITLE5=11 AM Verti Mart
TTITLE6=Full English
TTITLE7=Elliptical Blues
TTITLE8=Before and After
TTITLE9=Lateness of the Hour
TTITLE10=Round 2
EXTD=YEAR: 2009
EXTT0=
EXTT1=
EXTT2=
EXTT3=
EXTT4=
EXTT5=
EXTT6=
EXTT7=
EXTT8=
EXTT9=
EXTT10=
PLAYORDER=
